<svg id="Layer_1" enable-background="new 0 0 479.991 479.991" height="512" viewBox="0 0 479.991 479.991" width="512" xmlns="http://www.w3.org/2000/svg"><g fill="#fe929f"><path d="m200.987 207.84c22.22-21.524 57.382-20.935 78.87.85 29.085-44.796 37.76-104.151 37.76-157.34 0-47.849-57.678-54.21-76.92-25.64-18.896-28.032-75.712-22.717-76.9 24.18-.721 34.594 4.277 79.037 16.75 115.04"/><path d="m189.917 273.1c-13.832-27.495-2.754-61.363 25.22-75.27-33.194-40.718-89.598-69.499-139.02-84.54-44.769-13.304-67.675 38.911-46.76 65.66-32.634 9.34-44.852 65.044-.77 80.61 33.264 11.57 77.238 20.461 115.3 19.61"/><path d="m264.857 197.83c27.878 13.789 39.073 47.719 25.22 75.27 50.639 13.117 113.175 3.209 161.33-13.54 44.136-15.585 31.79-71.291-.77-80.61 20.853-26.67-1.856-79.004-46.76-65.66-32.977 10.036-72.528 27.907-102.54 50.21"/><path d="m248.227 303.41c-29.93 4.562-58.377-15.908-63.46-46.08-49.446 19.024-97.073 66.694-123.78 106.26-26.537 38.518 16.156 76.356 48 64.76-1.198 33.788 47.904 62.842 76.42 25.64 22.79-30.649 44.263-68.675 55.08-106.33"/><path d="m295.437 255.89c-4.205 30.229-32.35 51.836-62.98 47.62 3.176 51.749 31.98 108.887 62.73 149.18 28.438 37.142 77.63 8.231 76.43-25.64 31.895 11.631 74.524-26.221 48-64.76-22.097-30.778-49.63-61.184-80.98-83.08"/></g><path d="m378.361 199.905c13.711-17.536-1.226-51.895-30.715-43.13-21.508 6.535-47.583 18.288-67.356 32.981 7.819-23.013 11.512-54.437 10.674-74.627-.751-30.706-38.07-34.35-50.507-15.883-12.433-18.444-49.734-14.901-50.513 15.883-.475 22.705 2.808 51.913 11.003 75.566-19.746-14.98-46.172-27.109-68.597-33.921-29.446-8.751-44.431 25.589-30.715 43.13-21.436 6.135-29.462 42.726-.506 52.95 21.746 7.555 50.602 13.443 75.737 12.881-20.909 14.297-42.428 37.641-54.455 55.453-17.431 25.302 10.612 50.156 31.53 42.539-.787 22.195 31.467 41.279 50.198 16.842 14.906-20.059 29.045-45.008 36.18-69.845 7.209 24.557 22.235 51.057 35.931 68.991 18.695 24.417 50.992 5.382 50.205-16.842 20.95 7.64 48.952-17.225 31.53-42.539-14.63-20.348-32.631-40.211-53.193-54.573 24.827.294 53.109-5.625 74.075-12.908 28.98-10.23 20.892-46.824-.506-52.948zm-105.468 61.844c-7.096 14.155-22.394 22.101-37.849 19.976-18.141-2.44-31.832-17.969-31.832-36.45 0-20.4 16.549-36.785 36.785-36.785 27.403 0 45.121 28.948 32.896 53.259z" fill="#ffa4b8"/><path d="m240.697 208.03c-8.836 0-16-7.163-16-16v-56c0-8.837 7.164-16 16-16s16 7.163 16 16v56c0 8.837-7.163 16-16 16z" fill="#ece2e2"/><path d="m186.88 246.243c-3.611 0-.911.525-58.218-18.097-8.404-2.73-13.003-11.757-10.272-20.161s11.762-13.004 20.161-10.272l53.27 17.31c8.404 2.73 13.003 11.758 10.272 20.161-2.196 6.762-8.469 11.059-15.213 11.059z" fill="#ece2e2"/><path d="m293.244 246.654c-6.745 0-13.016-4.298-15.213-11.06-2.731-8.403 1.868-17.431 10.272-20.161l53.27-17.31c8.4-2.735 17.43 1.867 20.161 10.272 2.731 8.404-1.868 17.431-10.272 20.161-57.566 18.706-54.675 18.098-58.218 18.098z" fill="#ece2e2"/><path d="m306.35 354.271c-4.948 0-9.827-2.287-12.958-6.597l-32.92-45.31c-5.194-7.148-3.609-17.154 3.54-22.349 7.15-5.194 17.156-3.608 22.349 3.54l32.92 45.31c7.748 10.664-.058 25.406-12.931 25.406z" fill="#ece2e2"/><path d="m174.554 354.941c-12.872 0-20.68-14.741-12.931-25.405l32.92-45.31c5.195-7.15 15.2-8.734 22.349-3.54s8.733 15.2 3.54 22.349l-32.92 45.31c-3.132 4.309-8.011 6.596-12.958 6.596z" fill="#ece2e2"/><path d="m295.997 248.02c0 28.055-20.67 51.415-47.77 55.39-23.428 3.568-47.28-8.304-58.31-30.31-10.691-21.252-6.856-47.87 11.07-65.26 35.549-34.436 95.01-9.161 95.01 40.18z" fill="#efd66c"/><path d="m243.524 271.758c-10.04 1.529-20.263-3.559-24.99-12.99-10.285-20.446 11.479-42.493 32.117-32.259 21.066 10.421 15.966 41.862-7.127 45.249z" fill="#ffec8f"/></svg>